<svg width="73" height="26" viewBox="0 0 73 26" fill="none" xmlns="http://www.w3.org/2000/svg">
<path d="M18.5645 21.2539V26H4.92383V21.2539H18.5645ZM7.12109 0.40625V26H0.951172V0.40625H7.12109ZM16.8066 10.5664V15.1543H4.92383V10.5664H16.8066ZM18.6172 0.40625V5.16992H4.92383V0.40625H18.6172Z" fill="#0D9488"/>
<path d="M23.1875 0.40625H26.4746L34.8594 21.2715L43.2266 0.40625H46.5312L36.125 26H33.5586L23.1875 0.40625ZM22.1152 0.40625H25.0156L25.4902 16.0156V26H22.1152V0.40625ZM44.6855 0.40625H47.5859V26H44.2109V16.0156L44.6855 0.40625Z" fill="#26C395"/>
<path d="M53.5449 0.40625H62.0176C63.9395 0.40625 65.5625 0.699219 66.8867 1.28516C68.2227 1.87109 69.2363 2.73828 69.9277 3.88672C70.6309 5.02344 70.9824 6.42383 70.9824 8.08789C70.9824 9.25977 70.7422 10.332 70.2617 11.3047C69.793 12.2656 69.1133 13.0859 68.2227 13.7656C67.3438 14.4336 66.2891 14.9316 65.0586 15.2598L64.1094 15.6289H56.1465L56.1113 12.8691H62.123C63.3418 12.8691 64.3555 12.6582 65.1641 12.2363C65.9727 11.8027 66.582 11.2227 66.9922 10.4961C67.4023 9.76953 67.6074 8.9668 67.6074 8.08789C67.6074 7.10352 67.4141 6.24219 67.0273 5.50391C66.6406 4.76562 66.0312 4.19727 65.1992 3.79883C64.3789 3.38867 63.3184 3.18359 62.0176 3.18359H56.9375V26H53.5449V0.40625ZM68.5039 26L62.2812 14.3984L65.8145 14.3809L72.125 25.7891V26H68.5039Z" fill="#AB3D3C"/>
</svg>
