<svg width="141" height="29" viewBox="0 0 141 29" fill="none" xmlns="http://www.w3.org/2000/svg">
<path d="M10.0781 22L13.6577 0.181818H17.0668L13.4872 22H10.0781ZM0.308949 16.5881L0.87358 13.179H17.919L17.3544 16.5881H0.308949ZM2.40767 22L5.98722 0.181818H9.39631L5.81676 22H2.40767ZM1.5554 9.00284L2.13068 5.59375H19.1761L18.6009 9.00284H1.5554ZM21.3787 22V0.181818H35.8248V3.98508H25.9917V9.18395H34.8659V12.9872H25.9917V22H21.3787ZM45.0346 22.3196C43.3798 22.3196 41.9487 21.968 40.7413 21.2649C39.541 20.5547 38.6142 19.5675 37.9608 18.3033C37.3074 17.032 36.9806 15.5582 36.9806 13.8821C36.9806 12.1918 37.3074 10.7145 37.9608 9.45028C38.6142 8.17898 39.541 7.19176 40.7413 6.48864C41.9487 5.77841 43.3798 5.4233 45.0346 5.4233C46.6895 5.4233 48.117 5.77841 49.3173 6.48864C50.5247 7.19176 51.4551 8.17898 52.1085 9.45028C52.7619 10.7145 53.0886 12.1918 53.0886 13.8821C53.0886 15.5582 52.7619 17.032 52.1085 18.3033C51.4551 19.5675 50.5247 20.5547 49.3173 21.2649C48.117 21.968 46.6895 22.3196 45.0346 22.3196ZM45.0559 18.804C45.8088 18.804 46.4373 18.5909 46.9416 18.1648C47.4458 17.7315 47.8258 17.142 48.0815 16.3963C48.3443 15.6506 48.4757 14.8018 48.4757 13.8501C48.4757 12.8984 48.3443 12.0497 48.0815 11.304C47.8258 10.5582 47.4458 9.96875 46.9416 9.53551C46.4373 9.10227 45.8088 8.88565 45.0559 8.88565C44.296 8.88565 43.6568 9.10227 43.1383 9.53551C42.627 9.96875 42.2399 10.5582 41.9771 11.304C41.7214 12.0497 41.5936 12.8984 41.5936 13.8501C41.5936 14.8018 41.7214 15.6506 41.9771 16.3963C42.2399 17.142 42.627 17.7315 43.1383 18.1648C43.6568 18.5909 44.296 18.804 45.0559 18.804ZM66.5332 15.0327V5.63636H71.0716V22H66.7143V19.0277H66.5439C66.1745 19.9865 65.5602 20.7571 64.7008 21.3395C63.8485 21.9219 62.8081 22.2131 61.5794 22.2131C60.4856 22.2131 59.5233 21.9645 58.6923 21.4673C57.8613 20.9702 57.2115 20.2635 56.7427 19.3473C56.2811 18.4311 56.0467 17.3338 56.0396 16.0554V5.63636H60.5779V15.2457C60.585 16.2116 60.8443 16.9751 61.3556 17.5362C61.867 18.0973 62.5524 18.3778 63.4118 18.3778C63.9586 18.3778 64.47 18.2536 64.9458 18.005C65.4217 17.7493 65.8052 17.3729 66.0964 16.8757C66.3947 16.3786 66.5403 15.7642 66.5332 15.0327ZM79.2401 12.5398V22H74.7017V5.63636H79.027V8.52344H79.2188C79.581 7.57173 80.1882 6.81889 81.0405 6.26491C81.8928 5.70384 82.9261 5.4233 84.1406 5.4233C85.277 5.4233 86.2678 5.67187 87.1129 6.16903C87.9581 6.66619 88.6151 7.37642 89.0838 8.29972C89.5526 9.21591 89.7869 10.3097 89.7869 11.581V22H85.2486V12.3906C85.2557 11.3892 85 10.608 84.4815 10.0469C83.9631 9.47869 83.2493 9.1946 82.3402 9.1946C81.7294 9.1946 81.1896 9.32599 80.7209 9.58878C80.2592 9.85156 79.897 10.2351 79.6342 10.7393C79.3786 11.2365 79.2472 11.8366 79.2401 12.5398ZM99.3936 22.2663C98.1507 22.2663 97.025 21.9467 96.0165 21.3075C95.0151 20.6612 94.2196 19.7131 93.6301 18.4631C93.0478 17.206 92.7566 15.6648 92.7566 13.8395C92.7566 11.9645 93.0584 10.4055 93.6621 9.16264C94.2658 7.91264 95.0684 6.97869 96.0698 6.3608C97.0783 5.7358 98.1827 5.4233 99.383 5.4233C100.299 5.4233 101.063 5.57955 101.673 5.89205C102.291 6.19744 102.789 6.58097 103.165 7.04261C103.548 7.49716 103.84 7.9446 104.039 8.38494H104.177V0.181818H108.705V22H104.23V19.3793H104.039C103.825 19.8338 103.524 20.2848 103.133 20.7322C102.749 21.1726 102.249 21.5384 101.631 21.8295C101.02 22.1207 100.274 22.2663 99.3936 22.2663ZM100.832 18.6548C101.563 18.6548 102.181 18.456 102.686 18.0582C103.197 17.6534 103.588 17.0888 103.857 16.3643C104.134 15.6399 104.273 14.7912 104.273 13.8182C104.273 12.8452 104.138 12 103.868 11.2827C103.598 10.5653 103.208 10.0114 102.696 9.62074C102.185 9.23011 101.563 9.0348 100.832 9.0348C100.086 9.0348 99.4576 9.23722 98.9462 9.64204C98.4348 10.0469 98.0478 10.608 97.785 11.3253C97.5222 12.0426 97.3908 12.8736 97.3908 13.8182C97.3908 14.7699 97.5222 15.6115 97.785 16.343C98.0549 17.0675 98.4419 17.6357 98.9462 18.0476C99.4576 18.4524 100.086 18.6548 100.832 18.6548ZM112.436 22V5.63636H116.836V8.49148H117.006C117.305 7.47585 117.805 6.70881 118.509 6.19034C119.212 5.66477 120.021 5.40199 120.938 5.40199C121.165 5.40199 121.41 5.41619 121.673 5.4446C121.935 5.47301 122.166 5.51207 122.365 5.56179V9.58878C122.152 9.52486 121.857 9.46804 121.481 9.41832C121.104 9.36861 120.76 9.34375 120.447 9.34375C119.78 9.34375 119.183 9.48935 118.658 9.78054C118.139 10.0646 117.727 10.4624 117.422 10.9737C117.124 11.4851 116.974 12.0746 116.974 12.7422V22H112.436ZM128.011 28.1364C127.436 28.1364 126.896 28.0902 126.392 27.9979C125.895 27.9126 125.483 27.8026 125.156 27.6676L126.179 24.2798C126.712 24.4432 127.191 24.532 127.617 24.5462C128.05 24.5604 128.423 24.4609 128.736 24.2479C129.055 24.0348 129.315 23.6726 129.513 23.1612L129.78 22.4688L123.91 5.63636H128.683L132.07 17.6534H132.241L135.661 5.63636H140.465L134.105 23.7685C133.8 24.6491 133.384 25.4162 132.859 26.0696C132.34 26.7301 131.683 27.2379 130.888 27.593C130.092 27.9553 129.134 28.1364 128.011 28.1364Z" fill="white"/>
</svg>
